<svg width="32" height="33" viewBox="0 0 32 33" fill="none" xmlns="http://www.w3.org/2000/svg">
<path d="M14.6667 6.50008H24.4C25.8935 6.50008 26.6402 6.50008 27.2106 6.79073C27.7124 7.04639 28.1204 7.45434 28.376 7.95611C28.6667 8.52654 28.6667 9.27327 28.6667 10.7667V12.5001C28.6667 13.7426 28.6667 14.3638 28.4637 14.8539C28.193 15.5073 27.6739 16.0264 27.0205 16.2971C26.5304 16.5001 25.9092 16.5001 24.6667 16.5001M17.3333 26.5001H7.60001C6.10653 26.5001 5.3598 26.5001 4.78936 26.2094C4.2876 25.9538 3.87965 25.5458 3.62399 25.0441C3.33334 24.4736 3.33334 23.7269 3.33334 22.2334V20.5001C3.33334 19.2576 3.33334 18.6363 3.53633 18.1463C3.80698 17.4929 4.32611 16.9737 4.97952 16.7031C5.46957 16.5001 6.09083 16.5001 7.33334 16.5001M13.7333 19.8334H18.2667C18.64 19.8334 18.8267 19.8334 18.9693 19.7608C19.0948 19.6968 19.1968 19.5949 19.2607 19.4694C19.3333 19.3268 19.3333 19.1401 19.3333 18.7667V14.2334C19.3333 13.86 19.3333 13.6734 19.2607 13.5308C19.1968 13.4053 19.0948 13.3033 18.9693 13.2394C18.8267 13.1667 18.64 13.1667 18.2667 13.1667H13.7333C13.36 13.1667 13.1733 13.1667 13.0307 13.2394C12.9052 13.3033 12.8032 13.4053 12.7393 13.5308C12.6667 13.6734 12.6667 13.86 12.6667 14.2334V18.7667C12.6667 19.1401 12.6667 19.3268 12.7393 19.4694C12.8032 19.5949 12.9052 19.6968 13.0307 19.7608C13.1733 19.8334 13.36 19.8334 13.7333 19.8334ZM23.7333 29.8334H28.2667C28.64 29.8334 28.8267 29.8334 28.9693 29.7608C29.0948 29.6968 29.1968 29.5949 29.2607 29.4694C29.3333 29.3268 29.3333 29.1401 29.3333 28.7667V24.2334C29.3333 23.86 29.3333 23.6734 29.2607 23.5308C29.1968 23.4053 29.0948 23.3033 28.9693 23.2394C28.8267 23.1667 28.64 23.1667 28.2667 23.1667H23.7333C23.36 23.1667 23.1733 23.1667 23.0307 23.2394C22.9052 23.3033 22.8033 23.4053 22.7393 23.5308C22.6667 23.6734 22.6667 23.86 22.6667 24.2334V28.7667C22.6667 29.1401 22.6667 29.3268 22.7393 29.4694C22.8033 29.5949 22.9052 29.6968 23.0307 29.7608C23.1733 29.8334 23.36 29.8334 23.7333 29.8334ZM3.73334 9.83341H8.26667C8.64004 9.83341 8.82672 9.83341 8.96933 9.76075C9.09477 9.69684 9.19676 9.59485 9.26068 9.46941C9.33334 9.3268 9.33334 9.14012 9.33334 8.76675V4.23341C9.33334 3.86005 9.33334 3.67336 9.26068 3.53075C9.19676 3.40531 9.09477 3.30333 8.96933 3.23941C8.82672 3.16675 8.64004 3.16675 8.26667 3.16675H3.73334C3.35997 3.16675 3.17329 3.16675 3.03068 3.23941C2.90524 3.30333 2.80325 3.40531 2.73933 3.53075C2.66667 3.67336 2.66667 3.86005 2.66667 4.23341V8.76675C2.66667 9.14012 2.66667 9.3268 2.73933 9.46941C2.80325 9.59485 2.90524 9.69684 3.03068 9.76075C3.17329 9.83341 3.35997 9.83341 3.73334 9.83341Z" stroke="#BDDCFF" stroke-width="2" stroke-linecap="round" stroke-linejoin="round"/>
</svg>
