<svg width="32" height="33" viewBox="0 0 32 33" fill="none" xmlns="http://www.w3.org/2000/svg">
<path d="M22 5.83325L28.6667 12.4999M28.6667 5.83325L22 12.4999M21.3334 28.4999V26.8999C21.3334 24.6597 21.3334 23.5396 20.8974 22.684C20.5139 21.9313 19.902 21.3194 19.1493 20.9359C18.2937 20.4999 17.1736 20.4999 14.9334 20.4999H9.06669C6.82648 20.4999 5.70637 20.4999 4.85073 20.9359C4.09808 21.3194 3.48615 21.9313 3.10266 22.684C2.66669 23.5396 2.66669 24.6597 2.66669 26.8999V28.4999M16.6667 10.4999C16.6667 13.0772 14.5773 15.1666 12 15.1666C9.42269 15.1666 7.33335 13.0772 7.33335 10.4999C7.33335 7.92259 9.42269 5.83325 12 5.83325C14.5773 5.83325 16.6667 7.92259 16.6667 10.4999Z" stroke="#BDDCFF" stroke-width="2" stroke-linecap="round" stroke-linejoin="round"/>
</svg>
