<svg width="24" height="25" viewBox="0 0 24 25" fill="none" xmlns="http://www.w3.org/2000/svg">
<path d="M5 10.48V16.4912C5 16.8501 5 17.0296 5.05465 17.1881C5.10299 17.3282 5.18187 17.4558 5.28558 17.5617C5.40287 17.6815 5.5634 17.7617 5.88446 17.9223L11.2845 20.6223C11.5468 20.7535 11.678 20.819 11.8156 20.8449C11.9375 20.8677 12.0625 20.8677 12.1844 20.8449C12.322 20.819 12.4532 20.7535 12.7155 20.6223L18.1155 17.9223C18.4366 17.7617 18.5971 17.6815 18.7144 17.5617C18.8181 17.4558 18.897 17.3282 18.9453 17.1881C19 17.0296 19 16.8501 19 16.4912V10.48M2 8.98005L11.6422 4.15893C11.7734 4.09334 11.839 4.06054 11.9078 4.04764C11.9687 4.0362 12.0313 4.0362 12.0922 4.04764C12.161 4.06054 12.2266 4.09334 12.3578 4.15893L22 8.98005L12.3578 13.8012C12.2266 13.8668 12.161 13.8995 12.0922 13.9125C12.0313 13.9239 11.9687 13.9239 11.9078 13.9125C11.839 13.8995 11.7734 13.8668 11.6422 13.8012L2 8.98005Z" stroke="#9BC4FF" stroke-width="2" stroke-linecap="round" stroke-linejoin="round"/>
</svg>
