<svg width="24" height="25" viewBox="0 0 24 25" fill="none" xmlns="http://www.w3.org/2000/svg">
<path d="M15 5.07998C15 4.51993 15 4.2399 14.891 4.02599C14.7951 3.83783 14.6422 3.68485 14.454 3.58897C14.2401 3.47998 13.9601 3.47998 13.4 3.47998H10.6C10.0399 3.47998 9.75992 3.47998 9.54601 3.58897C9.35785 3.68485 9.20487 3.83783 9.10899 4.02599C9 4.2399 9 4.51993 9 5.07998V7.87998C9 8.44003 9 8.72006 8.89101 8.93397C8.79513 9.12213 8.64215 9.27511 8.45399 9.37099C8.24008 9.47998 7.96005 9.47998 7.4 9.47998H4.6C4.03995 9.47998 3.75992 9.47998 3.54601 9.58897C3.35785 9.68485 3.20487 9.83783 3.10899 10.026C3 10.2399 3 10.5199 3 11.08V13.88C3 14.44 3 14.7201 3.10899 14.934C3.20487 15.1221 3.35785 15.2751 3.54601 15.371C3.75992 15.48 4.03995 15.48 4.6 15.48H7.4C7.96005 15.48 8.24008 15.48 8.45399 15.589C8.64215 15.6848 8.79513 15.8378 8.89101 16.026C9 16.2399 9 16.5199 9 17.08V19.88C9 20.44 9 20.7201 9.10899 20.934C9.20487 21.1221 9.35785 21.2751 9.54601 21.371C9.75992 21.48 10.0399 21.48 10.6 21.48H13.4C13.9601 21.48 14.2401 21.48 14.454 21.371C14.6422 21.2751 14.7951 21.1221 14.891 20.934C15 20.7201 15 20.44 15 19.88V17.08C15 16.5199 15 16.2399 15.109 16.026C15.2049 15.8378 15.3578 15.6848 15.546 15.589C15.7599 15.48 16.0399 15.48 16.6 15.48H19.4C19.9601 15.48 20.2401 15.48 20.454 15.371C20.6422 15.2751 20.7951 15.1221 20.891 14.934C21 14.7201 21 14.44 21 13.88V11.08C21 10.5199 21 10.2399 20.891 10.026C20.7951 9.83783 20.6422 9.68485 20.454 9.58897C20.2401 9.47998 19.9601 9.47998 19.4 9.47998L16.6 9.47998C16.0399 9.47998 15.7599 9.47998 15.546 9.37099C15.3578 9.27511 15.2049 9.12213 15.109 8.93397C15 8.72006 15 8.44003 15 7.87998V5.07998Z" stroke="#9BC4FF" stroke-width="2" stroke-linecap="round" stroke-linejoin="round"/>
</svg>
