<svg width="24" height="25" viewBox="0 0 24 25" fill="none" xmlns="http://www.w3.org/2000/svg">
<path d="M9 21.48V14.08C9 13.5199 9 13.2399 9.109 13.026C9.20487 12.8378 9.35785 12.6848 9.54601 12.589C9.75993 12.48 10.04 12.48 10.6 12.48H13.4C13.9601 12.48 14.2401 12.48 14.454 12.589C14.6422 12.6848 14.7951 12.8378 14.891 13.026C15 13.2399 15 13.5199 15 14.08V21.48M2 9.97998L11.04 3.19998C11.3843 2.94179 11.5564 2.81269 11.7454 2.76293C11.9123 2.719 12.0877 2.719 12.2546 2.76293C12.4436 2.81269 12.6157 2.94179 12.96 3.19998L22 9.97998M4 8.47998V18.28C4 19.4001 4 19.9601 4.21799 20.388C4.40974 20.7643 4.7157 21.0702 5.09202 21.262C5.51985 21.48 6.0799 21.48 7.2 21.48H16.8C17.9201 21.48 18.4802 21.48 18.908 21.262C19.2843 21.0702 19.5903 20.7643 19.782 20.388C20 19.9601 20 19.4001 20 18.28V8.47998L13.92 3.91998C13.2315 3.40359 12.8872 3.1454 12.5091 3.04587C12.1754 2.95802 11.8246 2.95802 11.4909 3.04587C11.1128 3.1454 10.7685 3.40359 10.08 3.91998L4 8.47998Z" stroke="#9BC4FF" stroke-width="2" stroke-linecap="round" stroke-linejoin="round"/>
</svg>
