<svg width="24" height="25" viewBox="0 0 24 25" fill="none" xmlns="http://www.w3.org/2000/svg">
<path d="M16.9996 11.48V3.47998M12.9996 7.47998H20.9996M10.2266 14.343C9.02506 13.1415 8.07627 11.7828 7.38028 10.3332C7.32041 10.2085 7.29048 10.1462 7.26748 10.0673C7.18576 9.78693 7.24446 9.44267 7.41447 9.20524C7.46231 9.13843 7.51947 9.08127 7.63378 8.96696C7.98338 8.61735 8.15819 8.44255 8.27247 8.26677C8.70347 7.60388 8.70347 6.7493 8.27247 6.08641C8.15819 5.91063 7.98338 5.73583 7.63378 5.38622L7.43891 5.19136C6.90747 4.65991 6.64174 4.39419 6.35636 4.24985C5.7888 3.96278 5.11854 3.96278 4.55098 4.24985C4.2656 4.39419 3.99987 4.65991 3.46843 5.19136L3.3108 5.34899C2.78117 5.87861 2.51636 6.14342 2.31411 6.50346C2.08969 6.90296 1.92833 7.52345 1.9297 7.98168C1.93092 8.39462 2.01103 8.67685 2.17124 9.24129C3.03221 12.2747 4.65668 15.137 7.04466 17.525C9.43264 19.913 12.295 21.5375 15.3284 22.3985C15.8928 22.5587 16.1751 22.6388 16.588 22.64C17.0462 22.6414 17.6667 22.48 18.0662 22.2556C18.4263 22.0533 18.6911 21.7885 19.2207 21.2589L19.3783 21.1013C19.9098 20.5698 20.1755 20.3041 20.3198 20.0187C20.6069 19.4512 20.6069 18.7809 20.3198 18.2133C20.1755 17.9279 19.9098 17.6622 19.3783 17.1308L19.1835 16.9359C18.8339 16.5863 18.6591 16.4115 18.4833 16.2972C17.8204 15.8662 16.9658 15.8662 16.3029 16.2972C16.1271 16.4115 15.9523 16.5863 15.6027 16.9359C15.4884 17.0502 15.4313 17.1074 15.3644 17.1552C15.127 17.3252 14.7828 17.3839 14.5024 17.3022C14.4235 17.2792 14.3612 17.2493 14.2365 17.1894C12.7869 16.4934 11.4282 15.5446 10.2266 14.343Z" stroke="#9BC4FF" stroke-width="2" stroke-linecap="round" stroke-linejoin="round"/>
</svg>
