<svg width="284" height="603" viewBox="0 0 284 603" fill="none" xmlns="http://www.w3.org/2000/svg">
<g clip-path="url(#clip0_3437_188)">
<path d="M78.0561 283.345C74.7761 292.159 78.3935 302.039 86.6541 306.548L231.876 385.752C254.97 398.345 283.126 381.622 283.126 355.328V264.097C283.126 245.821 268.927 230.677 250.678 229.516L108.453 220.405C98.7076 219.784 90.1365 226.722 88.6248 236.373C86.2087 251.841 82.5778 271.17 78.0561 283.358V283.345ZM76.0044 108.428C80.985 121.427 84.8724 140.823 87.5719 154.779C89.3806 164.147 97.7896 170.761 107.306 170.14L250.692 160.948C268.941 159.787 283.14 144.643 283.14 126.367V35.1359C283.14 8.82889 254.984 -7.88128 231.889 4.71207L84.4945 85.0908C76.1934 89.6261 72.63 99.6009 76.0179 108.428H76.0044ZM3.00894 398.831C-0.446468 404.959 -0.257561 412.491 3.56229 418.403L133.626 586.314C140.01 596.181 150.971 602.147 162.727 602.147H203.598C237.801 602.147 265.539 574.423 265.539 540.206V493.477C265.539 481.721 259.587 470.761 249.706 464.376L61.2379 352.062C52.6938 346.528 41.2883 348.782 35.4978 357.164C26.6973 369.906 11.7554 383.322 2.99539 398.845L3.00894 398.831Z" fill="url(#paint0_radial_3437_188)"/>
</g>
<defs>
<radialGradient id="paint0_radial_3437_188" cx="0" cy="0" r="1" gradientUnits="userSpaceOnUse" gradientTransform="translate(-152.93 195.232) scale(436.137 436.138)">
<stop offset="0.4" stop-color="white"/>
<stop offset="1" stop-color="#277FFF"/>
</radialGradient>
<clipPath id="clip0_3437_188">
<rect width="284" height="603" fill="white"/>
</clipPath>
</defs>
</svg>
