<svg id="Blue" viewBox="0 0 64 64" xmlns="http://www.w3.org/2000/svg"><circle cx="32" cy="32" fill="#6498f6" r="29"/><circle cx="32" cy="32" fill="#90b6f9" r="25"/><path d="m45 24h-10v26h-6v-26h-10v-6h26z" fill="#206df3"/><g fill="#0444b7"><path d="m32 2a30 30 0 1 0 30 30 30.034 30.034 0 0 0 -30-30zm0 54a24 24 0 1 1 24-24 24.028 24.028 0 0 1 -24 24zm22.992-36.12 1.734-1a27.819 27.819 0 0 1 2.044 4.913l-1.932.517a25.789 25.789 0 0 0 -1.846-4.43zm-1-1.73a26.1 26.1 0 0 0 -2.922-3.8l1.414-1.414a28.157 28.157 0 0 1 3.241 4.216zm-4.336-5.216a26.1 26.1 0 0 0 -3.8-2.922l1-1.733a28.157 28.157 0 0 1 4.216 3.241zm-5.536-3.926a25.789 25.789 0 0 0 -4.429-1.846l.517-1.932a27.819 27.819 0 0 1 4.913 2.044zm-6.362-2.358a25.975 25.975 0 0 0 -4.758-.625v-2a27.936 27.936 0 0 1 5.275.693zm-6.758-.625a25.975 25.975 0 0 0 -4.758.625l-.517-1.932a27.936 27.936 0 0 1 5.275-.693zm-6.691 1.137a25.789 25.789 0 0 0 -4.429 1.846l-1-1.734a27.819 27.819 0 0 1 4.912-2.044zm-6.159 2.85a26.1 26.1 0 0 0 -3.8 2.922l-1.416-1.414a28.157 28.157 0 0 1 4.216-3.241zm-5.216 4.336a26.1 26.1 0 0 0 -2.922 3.8l-1.733-1a28.157 28.157 0 0 1 3.241-4.216zm-3.926 5.532a25.789 25.789 0 0 0 -1.846 4.429l-1.932-.517a27.819 27.819 0 0 1 2.044-4.913zm-2.358 6.362a25.975 25.975 0 0 0 -.625 4.758h-2a27.936 27.936 0 0 1 .693-5.275zm-.625 6.758a25.975 25.975 0 0 0 .625 4.758l-1.932.517a27.936 27.936 0 0 1 -.693-5.275zm1.137 6.691a25.789 25.789 0 0 0 1.846 4.429l-1.734 1a27.819 27.819 0 0 1 -2.044-4.912zm2.85 6.159a26.1 26.1 0 0 0 2.922 3.8l-1.414 1.416a28.157 28.157 0 0 1 -3.241-4.216zm4.336 5.216a26.1 26.1 0 0 0 3.8 2.922l-1 1.733a28.157 28.157 0 0 1 -4.216-3.241zm5.532 3.926a25.789 25.789 0 0 0 4.429 1.846l-.517 1.932a27.819 27.819 0 0 1 -4.913-2.044zm6.362 2.358a25.975 25.975 0 0 0 4.758.625v2a27.936 27.936 0 0 1 -5.275-.693zm6.758.625a25.975 25.975 0 0 0 4.758-.625l.517 1.932a27.936 27.936 0 0 1 -5.275.693zm6.691-1.137a25.789 25.789 0 0 0 4.429-1.846l1 1.734a27.819 27.819 0 0 1 -4.913 2.044zm6.159-2.85a26.1 26.1 0 0 0 3.8-2.922l1.414 1.414a28.157 28.157 0 0 1 -4.216 3.241zm5.216-4.336a26.1 26.1 0 0 0 2.922-3.8l1.733 1a28.157 28.157 0 0 1 -3.241 4.216zm3.926-5.532a25.789 25.789 0 0 0 1.846-4.429l1.932.517a27.819 27.819 0 0 1 -2.044 4.913zm2.358-6.362a25.975 25.975 0 0 0 .625-4.758h2a27.936 27.936 0 0 1 -.693 5.275zm.625-6.758a25.975 25.975 0 0 0 -.625-4.758l1.932-.517a27.936 27.936 0 0 1 .693 5.275z"/><path d="m36 28.14v-3.14h9a1 1 0 0 0 1-1v-6a1 1 0 0 0 -1-1h-26a1 1 0 0 0 -1 1v6a1 1 0 0 0 1 1h9v3.141c-5.863.392-13 1.689-13 4.859s7.138 4.469 13 4.861v12.139a1 1 0 0 0 1 1h6a1 1 0 0 0 1-1v-12.139c5.862-.392 13-1.692 13-4.861s-7.137-4.468-13-4.86zm-16-5.14v-4h24v4h-9a1 1 0 0 0 -1 1v11.967c-.646.02-1.309.033-2 .033s-1.354-.013-2-.033v-11.967a1 1 0 0 0 -1-1zm-3 10c0-.742 3.845-2.384 11-2.857v5.725c-7.166-.468-11-2.126-11-2.868zm17 16h-4v-11.037c.711.025 1.385.037 2 .037s1.289-.012 2-.037zm2-13.132v-5.732c7.163.472 11 2.122 11 2.864s-3.834 2.4-11 2.868z"/></g></svg>