<svg id="Blue" viewBox="0 0 64 64" xmlns="http://www.w3.org/2000/svg"><circle cx="32" cy="32" fill="#6498f6" r="29"/><circle cx="32" cy="32" fill="#90b6f9" r="25"/><path d="m47.14 19-8.07 8.07a9.995 9.995 0 0 1 -14.14 0l-8.07-8.07h5.66l5.24 5.24a5.987 5.987 0 0 0 8.48 0l5.24-5.24z" fill="#206df3"/><path d="m47.14 45h-5.66l-5.24-5.24a5.987 5.987 0 0 0 -8.48 0l-5.24 5.24h-5.66l8.07-8.07a9.995 9.995 0 0 1 14.14 0z" fill="#206df3"/><g fill="#0444b7"><path d="m32 2a30 30 0 1 0 30 30 30.034 30.034 0 0 0 -30-30zm0 54a24 24 0 1 1 24-24 24.028 24.028 0 0 1 -24 24zm22.992-36.12 1.734-1a27.819 27.819 0 0 1 2.044 4.913l-1.932.517a25.789 25.789 0 0 0 -1.846-4.43zm-1-1.73a26.1 26.1 0 0 0 -2.922-3.8l1.414-1.414a28.157 28.157 0 0 1 3.241 4.216zm-4.336-5.216a26.1 26.1 0 0 0 -3.8-2.922l1-1.733a28.157 28.157 0 0 1 4.216 3.241zm-5.536-3.926a25.789 25.789 0 0 0 -4.429-1.846l.517-1.932a27.819 27.819 0 0 1 4.913 2.044zm-6.362-2.358a25.975 25.975 0 0 0 -4.758-.625v-2a27.936 27.936 0 0 1 5.275.693zm-6.758-.625a25.975 25.975 0 0 0 -4.758.625l-.517-1.932a27.936 27.936 0 0 1 5.275-.693zm-6.691 1.137a25.789 25.789 0 0 0 -4.429 1.846l-1-1.734a27.819 27.819 0 0 1 4.912-2.044zm-6.159 2.85a26.1 26.1 0 0 0 -3.8 2.922l-1.416-1.414a28.157 28.157 0 0 1 4.216-3.241zm-5.216 4.336a26.1 26.1 0 0 0 -2.922 3.8l-1.733-1a28.157 28.157 0 0 1 3.241-4.216zm-3.926 5.532a25.789 25.789 0 0 0 -1.846 4.429l-1.932-.517a27.819 27.819 0 0 1 2.044-4.913zm-2.358 6.362a25.975 25.975 0 0 0 -.625 4.758h-2a27.936 27.936 0 0 1 .693-5.275zm-.625 6.758a25.975 25.975 0 0 0 .625 4.758l-1.932.517a27.936 27.936 0 0 1 -.693-5.275zm1.137 6.691a25.789 25.789 0 0 0 1.846 4.429l-1.734 1a27.819 27.819 0 0 1 -2.044-4.912zm2.85 6.159a26.1 26.1 0 0 0 2.922 3.8l-1.414 1.416a28.157 28.157 0 0 1 -3.241-4.216zm4.336 5.216a26.1 26.1 0 0 0 3.8 2.922l-1 1.733a28.157 28.157 0 0 1 -4.216-3.241zm5.532 3.926a25.789 25.789 0 0 0 4.429 1.846l-.517 1.932a27.819 27.819 0 0 1 -4.913-2.044zm6.362 2.358a25.975 25.975 0 0 0 4.758.625v2a27.936 27.936 0 0 1 -5.275-.693zm6.758.625a25.975 25.975 0 0 0 4.758-.625l.517 1.932a27.936 27.936 0 0 1 -5.275.693zm6.691-1.137a25.789 25.789 0 0 0 4.429-1.846l1 1.734a27.819 27.819 0 0 1 -4.913 2.044zm6.159-2.85a26.1 26.1 0 0 0 3.8-2.922l1.414 1.414a28.157 28.157 0 0 1 -4.216 3.241zm5.216-4.336a26.1 26.1 0 0 0 2.922-3.8l1.733 1a28.157 28.157 0 0 1 -3.241 4.216zm3.926-5.532a25.789 25.789 0 0 0 1.846-4.429l1.932.517a27.819 27.819 0 0 1 -2.044 4.913zm2.358-6.362a25.975 25.975 0 0 0 .625-4.758h2a27.936 27.936 0 0 1 -.693 5.275zm.625-6.758a25.975 25.975 0 0 0 -.625-4.758l1.932-.517a27.936 27.936 0 0 1 .693 5.275z"/><path d="m47.14 18h-5.66a1 1 0 0 0 -.707.293l-5.243 5.243a4.988 4.988 0 0 1 -7.063 0l-5.24-5.24a1 1 0 0 0 -.707-.296h-5.66a1 1 0 0 0 -.707 1.707l8.07 8.07a10.994 10.994 0 0 0 15.554 0l8.07-8.07a1 1 0 0 0 -.707-1.707zm-8.777 8.363a9 9 0 0 1 -12.726 0l-6.363-6.363h2.832l4.944 4.944a6.987 6.987 0 0 0 9.9 0l4.944-4.944h2.832z"/><path d="m39.777 36.223a10.994 10.994 0 0 0 -15.554 0l-8.07 8.07a1 1 0 0 0 .707 1.707h5.66a1 1 0 0 0 .707-.293l5.243-5.243a4.988 4.988 0 0 1 7.063 0l5.24 5.24a1 1 0 0 0 .707.296h5.66a1 1 0 0 0 .707-1.707zm2.117 7.777-4.944-4.944a6.987 6.987 0 0 0 -9.9 0l-4.944 4.944h-2.832l6.363-6.363a9 9 0 0 1 12.726 0l6.363 6.363z"/></g></svg>